<svg xmlns="http://www.w3.org/2000/svg" xmlns:xlink="http://www.w3.org/1999/xlink" width="1040" height="971.82"><rect width="1040" height="971.82" rx="5" ry="5" class="a"/><svg y="0%" x="0%"><circle cx="20" cy="20" r="6" fill="#ff5f58"/><circle cx="40" cy="20" r="6" fill="#ffbd2e"/><circle cx="60" cy="20" r="6" fill="#18c132"/></svg><svg height="911.82" viewBox="0 0 100 91.182" width="1000" x="15" xmlns="http://www.w3.org/2000/svg" xmlns:xlink="http://www.w3.org/1999/xlink" y="50"><style>@keyframes o{0%{transform:translateX(-700px)}1.59%{transform:translateX(-1100px)}2.07%{transform:translateX(-1200px)}33.29%{transform:translateX(-1400px)}34.89%{transform:translateX(-1800px)}35.39%{transform:translateX(-1900px)}64.27%{transform:translateX(-2100px)}65.86%{transform:translateX(-2500px)}66.33%{transform:translateX(-2600px)}98.23%{transform:translateX(-3400px)}99.83%{transform:translateX(-3700px)}to{transform:translateX(-4500px)}}.a{fill:#282d35}.f,.g,.h{white-space:pre}.f{fill:#66c2cd;font-weight:700}.g,.h{fill:#b9c0cb}.h{fill:#66c2cd}.i{font-weight:700}.i,.j,.k,.l{fill:#a8cc8c;white-space:pre}.k,.l{fill:#e88388}.l{fill:#dbab79}</style><g font-family="Monaco,Consolas,Menlo,'Bitstream Vera Sans Mono','Powerline Symbols',monospace" font-size="1.67"><defs><symbol id="1"><text x="4.008" y="1.67" class="f">Analemma</text><text x="13.026" y="1.67" class="f">GVM</text><text x="17.034" y="1.67" class="f">—</text><text x="19.038" y="1.67" class="f">Agent</text><text x="25.05" y="1.67" class="f">Governance</text><text x="36.072" y="1.67" class="f">Demo</text></symbol><symbol id="2"><text x="2.004" y="1.67" class="g">Real</text><text x="7.014" y="1.67" class="g">OpenClaw</text><text x="16.032" y="1.67" class="g">agent</text><text x="22.044" y="1.67" class="g">(Claude</text><text x="30.06" y="1.67" class="g">Sonnet</text><text x="37.074" y="1.67" class="g">4)</text><text x="40.08" y="1.67" class="g">+</text><text x="42.084" y="1.67" class="g">live</text><text x="47.094" y="1.67" class="g">GVM</text><text x="51.102" y="1.67" class="g">proxy</text></symbol><symbol id="3"><text x="2.004" y="1.67" class="g">17MB</text><text x="7.014" y="1.67" class="g">binary</text><text x="14.028" y="1.67" class="g">|</text><text x="16.032" y="1.67" class="g">5MB</text><text x="20.04" y="1.67" class="g">RAM</text><text x="24.048" y="1.67" class="g">|</text><text x="26.052" y="1.67" class="g">No</text><text x="29.058" y="1.67" class="g">GPU</text><text x="33.066" y="1.67" class="g">|</text><text x="35.07" y="1.67" class="g">No</text><text x="38.076" y="1.67" class="g">Docker</text></symbol><symbol id="4"><text x="2.004" y="1.67" class="h">──</text><text x="5.01" y="1.67" class="h">Scenario</text><text x="14.028" y="1.67" class="h">1:</text><text x="17.034" y="1.67" class="h">Read</text><text x="22.044" y="1.67" class="h">API</text><text x="26.052" y="1.67" class="h">data</text><text x="31.062" y="1.67" class="h">──</text></symbol><symbol id="5"><text x="2.004" y="1.67" class="f">You</text><text x="6.012" y="1.67" class="f">&gt;</text><text x="9.018" y="1.67" class="g">Check</text><text x="15.03" y="1.67" class="g">if</text><text x="18.036" y="1.67" class="g">reading</text><text x="26.052" y="1.67" class="g">Stripe</text><text x="33.066" y="1.67" class="g">charges</text><text x="41.082" y="1.67" class="g">is</text><text x="44.088" y="1.67" class="g">allowed</text><text x="52.104" y="1.67" class="g">by</text><text x="55.11" y="1.67" class="g">GVM</text></symbol><symbol id="6"><text x="2.004" y="1.67" class="g">[calling</text><text x="11.022" y="1.67" class="g">GVM</text><text x="15.03" y="1.67" class="g">proxy</text><text x="21.042" y="1.67" class="g">at</text><text x="24.048" y="1.67" class="g">http://127.0.0.1:8080]</text></symbol><symbol id="7"><text x="2.004" y="1.67" class="i">Agent</text><text x="8.016" y="1.67" class="i">&gt;</text><text x="10.02" y="1.67" class="j">The</text><text x="14.028" y="1.67" class="j">command</text><text x="22.044" y="1.67" class="j">tested</text><text x="29.058" y="1.67" class="j">a</text><text x="31.062" y="1.67" class="j">local</text><text x="37.074" y="1.67" class="j">gateway</text><text x="45.09" y="1.67" class="j">VM</text><text x="48.096" y="1.67" class="j">(GVM)</text><text x="54.108" y="1.67" class="j">service</text><text x="62.124" y="1.67" class="j">at</text><text x="65.13" y="1.67" class="j">port</text><text x="70.14" y="1.67" class="j">8080</text><text x="75.15" y="1.67" class="j">to</text><text x="78.156" y="1.67" class="j">check</text><text x="84.168" y="1.67" class="j">if</text><text x="87.174" y="1.67" class="j">a</text><text x="89.178" y="1.67" class="j">GET</text><text x="93.186" y="1.67" class="j">request</text></symbol><symbol id="8"><text x="1.002" y="1.67" class="j">to</text><text x="4.008" y="1.67" class="j">Stripe&apos;s</text><text x="13.026" y="1.67" class="j">API</text><text x="17.034" y="1.67" class="j">charges</text><text x="25.05" y="1.67" class="j">endpoint</text><text x="34.068" y="1.67" class="j">would</text><text x="40.08" y="1.67" class="j">be</text><text x="43.086" y="1.67" class="j">allowed.</text><text x="52.104" y="1.67" class="j">The</text><text x="56.112" y="1.67" class="j">service</text><text x="64.128" y="1.67" class="j">responded</text><text x="74.148" y="1.67" class="j">that</text><text x="79.158" y="1.67" class="j">the</text><text x="83.166" y="1.67" class="j">request</text><text x="91.182" y="1.67" class="j">would</text><text x="97.194" y="1.67" class="j">be</text></symbol><symbol id="9"><text y="1.67" class="j">permitted</text><text x="10.02" y="1.67" class="j">but</text><text x="14.028" y="1.67" class="j">delayed</text><text x="22.044" y="1.67" class="j">by</text><text x="25.05" y="1.67" class="j">300ms,</text><text x="32.064" y="1.67" class="j">matching</text><text x="41.082" y="1.67" class="j">a</text><text x="43.086" y="1.67" class="j">&quot;global-read-allow&quot;</text><text x="63.126" y="1.67" class="j">rule</text><text x="68.136" y="1.67" class="j">in</text><text x="71.142" y="1.67" class="j">what</text><text x="76.152" y="1.67" class="j">appears</text><text x="84.168" y="1.67" class="j">to</text><text x="87.174" y="1.67" class="j">be</text><text x="90.18" y="1.67" class="j">a</text><text x="92.184" y="1.67" class="j">dry-run</text></symbol><symbol id="10"><text y="1.67" class="j">mode</text><text x="5.01" y="1.67" class="j">for</text><text x="9.018" y="1.67" class="j">API</text><text x="13.026" y="1.67" class="j">rate</text><text x="18.036" y="1.67" class="j">limiting</text><text x="27.054" y="1.67" class="j">or</text><text x="30.06" y="1.67" class="j">security</text><text x="39.078" y="1.67" class="j">filtering.</text></symbol><symbol id="11"><text x="2.004" y="1.67" class="h">──</text><text x="5.01" y="1.67" class="h">Scenario</text><text x="14.028" y="1.67" class="h">2:</text><text x="17.034" y="1.67" class="h">Wire</text><text x="22.044" y="1.67" class="h">transfer</text><text x="31.062" y="1.67" class="h">attempt</text><text x="39.078" y="1.67" class="h">──</text></symbol><symbol id="12"><text x="2.004" y="1.67" class="f">You</text><text x="6.012" y="1.67" class="f">&gt;</text><text x="9.018" y="1.67" class="g">Can</text><text x="13.026" y="1.67" class="g">I</text><text x="15.03" y="1.67" class="g">send</text><text x="20.04" y="1.67" class="g">a</text><text x="22.044" y="1.67" class="g">wire</text><text x="27.054" y="1.67" class="g">transfer</text><text x="36.072" y="1.67" class="g">through</text><text x="44.088" y="1.67" class="g">api.bank.com?</text></symbol><symbol id="13"><text x="2.004" y="1.67" class="i">Agent</text><text x="8.016" y="1.67" class="i">&gt;</text><text x="10.02" y="1.67" class="k">The</text><text x="14.028" y="1.67" class="k">curl</text><text x="19.038" y="1.67" class="k">command</text><text x="27.054" y="1.67" class="k">sent</text><text x="32.064" y="1.67" class="k">a</text><text x="34.068" y="1.67" class="k">request</text><text x="42.084" y="1.67" class="k">to</text><text x="45.09" y="1.67" class="k">a</text><text x="47.094" y="1.67" class="k">Gateway</text><text x="55.11" y="1.67" class="k">Validation</text><text x="66.132" y="1.67" class="k">Manager</text><text x="74.148" y="1.67" class="k">(GVM)</text><text x="80.16" y="1.67" class="k">service</text><text x="88.176" y="1.67" class="k">running</text><text x="96.192" y="1.67" class="k">loca</text></symbol><symbol id="14"><text y="1.67" class="k">lly</text><text x="4.008" y="1.67" class="k">on</text><text x="7.014" y="1.67" class="k">port</text><text x="12.024" y="1.67" class="k">8080,</text><text x="18.036" y="1.67" class="k">asking</text><text x="25.05" y="1.67" class="k">it</text><text x="28.056" y="1.67" class="k">to</text><text x="31.062" y="1.67" class="k">check</text><text x="37.074" y="1.67" class="k">if</text><text x="40.08" y="1.67" class="k">a</text><text x="42.084" y="1.67" class="k">banking</text><text x="50.1" y="1.67" class="k">wire</text><text x="55.11" y="1.67" class="k">transfer</text><text x="64.128" y="1.67" class="k">operation</text><text x="74.148" y="1.67" class="k">to</text><text x="77.154" y="1.67" class="k">`api.bank.com`</text><text x="92.184" y="1.67" class="k">would</text><text x="98.196" y="1.67" class="k">be</text></symbol><symbol id="15"><text x="1.002" y="1.67" class="k">allowed.</text><text x="10.02" y="1.67" class="k">The</text><text x="14.028" y="1.67" class="k">GVM</text><text x="18.036" y="1.67" class="k">responded</text><text x="28.056" y="1.67" class="k">with</text><text x="33.066" y="1.67" class="k">a</text><text x="35.07" y="1.67" class="k">&quot;Deny&quot;</text><text x="42.084" y="1.67" class="k">decision,</text><text x="52.104" y="1.67" class="k">blocking</text><text x="61.122" y="1.67" class="k">the</text><text x="65.13" y="1.67" class="k">operation</text><text x="75.15" y="1.67" class="k">due</text><text x="79.158" y="1.67" class="k">to</text><text x="82.164" y="1.67" class="k">a</text><text x="84.168" y="1.67" class="k">&quot;global-fallback</text></symbol><symbol id="16"><text y="1.67" class="k">&quot;</text><text x="2.004" y="1.67" class="k">security</text><text x="11.022" y="1.67" class="k">policy</text><text x="18.036" y="1.67" class="k">that</text><text x="23.046" y="1.67" class="k">prevents</text><text x="32.064" y="1.67" class="k">unauthorized</text><text x="45.09" y="1.67" class="k">banking</text><text x="53.106" y="1.67" class="k">operations.</text></symbol><symbol id="17"><text x="2.004" y="1.67" class="h">──</text><text x="5.01" y="1.67" class="h">Scenario</text><text x="14.028" y="1.67" class="h">3:</text><text x="17.034" y="1.67" class="h">Ask</text><text x="21.042" y="1.67" class="h">about</text><text x="27.054" y="1.67" class="h">security</text><text x="36.072" y="1.67" class="h">──</text></symbol><symbol id="18"><text x="2.004" y="1.67" class="f">You</text><text x="6.012" y="1.67" class="f">&gt;</text><text x="9.018" y="1.67" class="g">What&apos;s</text><text x="16.032" y="1.67" class="g">the</text><text x="20.04" y="1.67" class="g">GVM</text><text x="24.048" y="1.67" class="g">proxy</text><text x="30.06" y="1.67" class="g">status</text><text x="37.074" y="1.67" class="g">right</text><text x="43.086" y="1.67" class="g">now?</text></symbol><symbol id="19"><text x="2.004" y="1.67" class="i">Agent</text><text x="8.016" y="1.67" class="i">&gt;</text><text x="10.02" y="1.67" class="g">Here&apos;s</text><text x="17.034" y="1.67" class="g">a</text><text x="19.038" y="1.67" class="g">3-bullet</text><text x="28.056" y="1.67" class="g">summary</text><text x="36.072" y="1.67" class="g">of</text><text x="39.078" y="1.67" class="g">the</text><text x="43.086" y="1.67" class="g">GVM</text><text x="47.094" y="1.67" class="g">(likely</text><text x="55.11" y="1.67" class="g">a</text><text x="57.114" y="1.67" class="g">virtual</text><text x="65.13" y="1.67" class="g">machine</text><text x="73.146" y="1.67" class="g">or</text><text x="76.152" y="1.67" class="g">service)</text><text x="85.17" y="1.67" class="g">status:</text></symbol><symbol id="20"><text x="2.004" y="1.67" class="i">Agent</text><text x="8.016" y="1.67" class="i">&gt;</text><text x="10.02" y="1.67" class="g">•</text><text x="12.024" y="1.67" class="g">**Service</text><text x="22.044" y="1.67" class="g">is</text><text x="25.05" y="1.67" class="g">operational**</text><text x="39.078" y="1.67" class="g">-</text><text x="41.082" y="1.67" class="g">All</text><text x="45.09" y="1.67" class="g">core</text><text x="50.1" y="1.67" class="g">components</text><text x="61.122" y="1.67" class="g">(ledger,</text><text x="70.14" y="1.67" class="g">policy</text><text x="77.154" y="1.67" class="g">engine,</text><text x="85.17" y="1.67" class="g">registry,</text><text x="95.19" y="1.67" class="g">vault</text></symbol><symbol id="21"><text y="1.67" class="g">,</text><text x="2.004" y="1.67" class="g">SRR)</text><text x="7.014" y="1.67" class="g">are</text><text x="11.022" y="1.67" class="g">loaded</text><text x="18.036" y="1.67" class="g">and</text><text x="22.044" y="1.67" class="g">active,</text><text x="30.06" y="1.67" class="g">running</text><text x="38.076" y="1.67" class="g">version</text><text x="46.092" y="1.67" class="g">0.1.0</text></symbol><symbol id="22"><text x="2.004" y="1.67" class="i">Agent</text><text x="8.016" y="1.67" class="i">&gt;</text><text x="10.02" y="1.67" class="g">•</text><text x="12.024" y="1.67" class="g">**Registry</text><text x="23.046" y="1.67" class="g">contains</text><text x="32.064" y="1.67" class="g">12</text><text x="35.07" y="1.67" class="g">operations**</text><text x="48.096" y="1.67" class="g">-</text><text x="50.1" y="1.67" class="g">10</text><text x="53.106" y="1.67" class="g">core</text><text x="58.116" y="1.67" class="g">operations</text><text x="69.138" y="1.67" class="g">and</text><text x="73.146" y="1.67" class="g">2</text><text x="75.15" y="1.67" class="g">custom</text><text x="82.164" y="1.67" class="g">operations</text><text x="93.186" y="1.67" class="g">are</text><text x="97.194" y="1.67" class="g">cur</text></symbol><symbol id="23"><text y="1.67" class="g">rently</text><text x="7.014" y="1.67" class="g">registered</text><text x="18.036" y="1.67" class="g">in</text><text x="21.042" y="1.67" class="g">the</text><text x="25.05" y="1.67" class="g">system</text></symbol><symbol id="24"><text x="2.004" y="1.67" class="i">Agent</text><text x="8.016" y="1.67" class="i">&gt;</text><text x="10.02" y="1.67" class="g">•</text><text x="12.024" y="1.67" class="g">**Shadow</text><text x="21.042" y="1.67" class="g">mode</text><text x="26.052" y="1.67" class="g">is</text><text x="29.058" y="1.67" class="g">disabled**</text><text x="40.08" y="1.67" class="g">-</text><text x="42.084" y="1.67" class="g">The</text><text x="46.092" y="1.67" class="g">shadow</text><text x="53.106" y="1.67" class="g">system</text><text x="60.12" y="1.67" class="g">is</text><text x="63.126" y="1.67" class="g">inactive</text><text x="72.144" y="1.67" class="g">with</text><text x="77.154" y="1.67" class="g">0</text><text x="79.158" y="1.67" class="g">active</text><text x="86.172" y="1.67" class="g">intents,</text><text x="95.19" y="1.67" class="g">sugge</text></symbol><symbol id="25"><text y="1.67" class="g">sting</text><text x="6.012" y="1.67" class="g">it&apos;s</text><text x="11.022" y="1.67" class="g">not</text><text x="15.03" y="1.67" class="g">currently</text><text x="25.05" y="1.67" class="g">processing</text><text x="36.072" y="1.67" class="g">or</text><text x="39.078" y="1.67" class="g">monitoring</text><text x="50.1" y="1.67" class="g">background</text><text x="61.122" y="1.67" class="g">tasks</text></symbol><symbol id="26"><text x="2.004" y="1.67" class="h">──</text><text x="5.01" y="1.67" class="h">Latency</text><text x="13.026" y="1.67" class="h">(N=20)</text><text x="20.04" y="1.67" class="h">──</text></symbol><symbol id="27"><text x="2.004" y="1.67" class="l">Measuring...</text><text x="15.03" y="1.67" class="j">done</text></symbol><symbol id="28"><text x="2.004" y="1.67" class="j">Allow</text><text x="9.018" y="1.67" class="g">p50:</text><text x="14.028" y="1.67" class="g">0.75ms</text><text x="22.044" y="1.67" class="g">mean:</text><text x="28.056" y="1.67" class="g">3.50ms</text></symbol><symbol id="29"><text x="2.004" y="1.67" class="k">Deny</text><text x="9.018" y="1.67" class="g">p50:</text><text x="14.028" y="1.67" class="g">0.47ms</text><text x="22.044" y="1.67" class="g">mean:</text><text x="28.056" y="1.67" class="g">1.58ms</text></symbol><symbol id="30"><text x="2.004" y="1.67" class="f">Install</text><text x="10.02" y="1.67" class="f">one</text><text x="14.028" y="1.67" class="f">skill.</text><text x="21.042" y="1.67" class="f">Your</text><text x="26.052" y="1.67" class="f">agent</text><text x="32.064" y="1.67" class="f">is</text><text x="35.07" y="1.67" class="f">protected.</text></symbol><symbol id="31"><text x="2.004" y="1.67" class="g">github.com/skwuwu/analemma-gvm-openclaw</text></symbol><symbol id="a"><path fill="transparent" d="M0 0h100v43H0z"/></symbol><symbol id="b"><path fill="#6f7683" d="M0 0h1.102v2.171H0z"/></symbol></defs><path class="a" d="M0 0h100v91.182H0z"/><g style="animation-duration:62.703s;animation-iteration-count:infinite;animation-name:o;animation-timing-function:steps(1,end)"><svg width="4600"><svg><use xlink:href="#a"/><use xlink:href="#b" x="-.004"/></svg><svg x="100"><use xlink:href="#a"/><use xlink:href="#b" x="-.004" y="2.146"/></svg><svg x="200"><use xlink:href="#a"/><use xlink:href="#b" x="-.004" y="2.146"/></svg><svg x="300"><use xlink:href="#a"/><use xlink:href="#b" x="-.004" y="4.317"/><use xlink:href="#1" y="2.171"/></svg><svg x="400"><use xlink:href="#a"/><use xlink:href="#b" x="-.004" y="4.317"/><use xlink:href="#1" y="2.171"/></svg><svg x="500"><use xlink:href="#a"/><use xlink:href="#b" x="-.004" y="6.488"/><use xlink:href="#1" y="2.171"/><use xlink:href="#2" y="4.342"/></svg><svg x="600"><use xlink:href="#a"/><use xlink:href="#b" x="-.004" y="8.659"/><use xlink:href="#1" y="2.171"/><use xlink:href="#2" y="4.342"/><use xlink:href="#3" y="6.513"/></svg><svg x="700"><use xlink:href="#a"/><use xlink:href="#b" x="-.004" y="10.83"/><use xlink:href="#1" y="2.171"/><use xlink:href="#2" y="4.342"/><use xlink:href="#3" y="6.513"/></svg><svg x="800"><use xlink:href="#a"/><use xlink:href="#b" x="-.004" y="13.001"/><use xlink:href="#1" y="2.171"/><use xlink:href="#2" y="4.342"/><use xlink:href="#3" y="6.513"/><use xlink:href="#4" y="10.855"/></svg><svg x="900"><use xlink:href="#a"/><use xlink:href="#b" x="-.004" y="15.172"/><use xlink:href="#1" y="2.171"/><use xlink:href="#2" y="4.342"/><use xlink:href="#3" y="6.513"/><use xlink:href="#4" y="10.855"/></svg><svg x="1000"><use xlink:href="#a"/><use xlink:href="#b" x="-.004" y="17.343"/><use xlink:href="#1" y="2.171"/><use xlink:href="#2" y="4.342"/><use xlink:href="#3" y="6.513"/><use xlink:href="#4" y="10.855"/><use xlink:href="#5" y="15.197"/></svg><svg x="1100"><use xlink:href="#a"/><use xlink:href="#b" x="-.004" y="19.514"/><use xlink:href="#1" y="2.171"/><use xlink:href="#2" y="4.342"/><use xlink:href="#3" y="6.513"/><use xlink:href="#4" y="10.855"/><use xlink:href="#5" y="15.197"/></svg><svg x="1200"><use xlink:href="#a"/><use xlink:href="#b" x="-.004" y="21.685"/><use xlink:href="#1" y="2.171"/><use xlink:href="#2" y="4.342"/><use xlink:href="#3" y="6.513"/><use xlink:href="#4" y="10.855"/><use xlink:href="#5" y="15.197"/><use xlink:href="#6" y="19.539"/></svg><svg x="1300"><use xlink:href="#a"/><use xlink:href="#b" x="-.004" y="30.369"/><use xlink:href="#1" y="2.171"/><use xlink:href="#2" y="4.342"/><use xlink:href="#3" y="6.513"/><use xlink:href="#4" y="10.855"/><use xlink:href="#5" y="15.197"/><use xlink:href="#6" y="19.539"/><use xlink:href="#7" y="21.71"/><use xlink:href="#8" y="23.881"/><use xlink:href="#9" y="26.052"/><use xlink:href="#10" y="28.223"/></svg><svg x="1400"><use xlink:href="#a"/><use xlink:href="#b" x="-.004" y="32.54"/><use xlink:href="#1" y="2.171"/><use xlink:href="#2" y="4.342"/><use xlink:href="#3" y="6.513"/><use xlink:href="#4" y="10.855"/><use xlink:href="#5" y="15.197"/><use xlink:href="#6" y="19.539"/><use xlink:href="#7" y="21.71"/><use xlink:href="#8" y="23.881"/><use xlink:href="#9" y="26.052"/><use xlink:href="#10" y="28.223"/></svg><svg x="1500"><use xlink:href="#a"/><use xlink:href="#b" x="-.004" y="34.711"/><use xlink:href="#1" y="2.171"/><use xlink:href="#2" y="4.342"/><use xlink:href="#3" y="6.513"/><use xlink:href="#4" y="10.855"/><use xlink:href="#5" y="15.197"/><use xlink:href="#6" y="19.539"/><use xlink:href="#7" y="21.71"/><use xlink:href="#8" y="23.881"/><use xlink:href="#9" y="26.052"/><use xlink:href="#10" y="28.223"/><use xlink:href="#11" y="32.565"/></svg><svg x="1600"><use xlink:href="#a"/><use xlink:href="#b" x="-.004" y="36.882"/><use xlink:href="#1" y="2.171"/><use xlink:href="#2" y="4.342"/><use xlink:href="#3" y="6.513"/><use xlink:href="#4" y="10.855"/><use xlink:href="#5" y="15.197"/><use xlink:href="#6" y="19.539"/><use xlink:href="#7" y="21.71"/><use xlink:href="#8" y="23.881"/><use xlink:href="#9" y="26.052"/><use xlink:href="#10" y="28.223"/><use xlink:href="#11" y="32.565"/></svg><svg x="1700"><use xlink:href="#a"/><use xlink:href="#b" x="-.004" y="39.053"/><use xlink:href="#1" y="2.171"/><use xlink:href="#2" y="4.342"/><use xlink:href="#3" y="6.513"/><use xlink:href="#4" y="10.855"/><use xlink:href="#5" y="15.197"/><use xlink:href="#6" y="19.539"/><use xlink:href="#7" y="21.71"/><use xlink:href="#8" y="23.881"/><use xlink:href="#9" y="26.052"/><use xlink:href="#10" y="28.223"/><use xlink:href="#11" y="32.565"/><use xlink:href="#12" y="36.907"/></svg><svg x="1800"><use xlink:href="#a"/><use xlink:href="#b" x="-.004" y="41.224"/><use xlink:href="#1" y="2.171"/><use xlink:href="#2" y="4.342"/><use xlink:href="#3" y="6.513"/><use xlink:href="#4" y="10.855"/><use xlink:href="#5" y="15.197"/><use xlink:href="#6" y="19.539"/><use xlink:href="#7" y="21.71"/><use xlink:href="#8" y="23.881"/><use xlink:href="#9" y="26.052"/><use xlink:href="#10" y="28.223"/><use xlink:href="#11" y="32.565"/><use xlink:href="#12" y="36.907"/></svg><svg x="1900"><use xlink:href="#a"/><use xlink:href="#b" x="-.004" y="43.395"/><use xlink:href="#1" y="2.171"/><use xlink:href="#2" y="4.342"/><use xlink:href="#3" y="6.513"/><use xlink:href="#4" y="10.855"/><use xlink:href="#5" y="15.197"/><use xlink:href="#6" y="19.539"/><use xlink:href="#7" y="21.71"/><use xlink:href="#8" y="23.881"/><use xlink:href="#9" y="26.052"/><use xlink:href="#10" y="28.223"/><use xlink:href="#11" y="32.565"/><use xlink:href="#12" y="36.907"/><use xlink:href="#6" y="41.249"/></svg><svg x="2000"><use xlink:href="#a"/><use xlink:href="#b" x="-.004" y="52.079"/><use xlink:href="#1" y="2.171"/><use xlink:href="#2" y="4.342"/><use xlink:href="#3" y="6.513"/><use xlink:href="#4" y="10.855"/><use xlink:href="#5" y="15.197"/><use xlink:href="#6" y="19.539"/><use xlink:href="#7" y="21.71"/><use xlink:href="#8" y="23.881"/><use xlink:href="#9" y="26.052"/><use xlink:href="#10" y="28.223"/><use xlink:href="#11" y="32.565"/><use xlink:href="#12" y="36.907"/><use xlink:href="#6" y="41.249"/><use xlink:href="#13" y="43.42"/><use xlink:href="#14" y="45.591"/><use xlink:href="#15" y="47.762"/><use xlink:href="#16" y="49.933"/></svg><svg x="2100"><use xlink:href="#a"/><use xlink:href="#b" x="-.004" y="54.25"/><use xlink:href="#1" y="2.171"/><use xlink:href="#2" y="4.342"/><use xlink:href="#3" y="6.513"/><use xlink:href="#4" y="10.855"/><use xlink:href="#5" y="15.197"/><use xlink:href="#6" y="19.539"/><use xlink:href="#7" y="21.71"/><use xlink:href="#8" y="23.881"/><use xlink:href="#9" y="26.052"/><use xlink:href="#10" y="28.223"/><use xlink:href="#11" y="32.565"/><use xlink:href="#12" y="36.907"/><use xlink:href="#6" y="41.249"/><use xlink:href="#13" y="43.42"/><use xlink:href="#14" y="45.591"/><use xlink:href="#15" y="47.762"/><use xlink:href="#16" y="49.933"/></svg><svg x="2200"><use xlink:href="#a"/><use xlink:href="#b" x="-.004" y="56.421"/><use xlink:href="#1" y="2.171"/><use xlink:href="#2" y="4.342"/><use xlink:href="#3" y="6.513"/><use xlink:href="#4" y="10.855"/><use xlink:href="#5" y="15.197"/><use xlink:href="#6" y="19.539"/><use xlink:href="#7" y="21.71"/><use xlink:href="#8" y="23.881"/><use xlink:href="#9" y="26.052"/><use xlink:href="#10" y="28.223"/><use xlink:href="#11" y="32.565"/><use xlink:href="#12" y="36.907"/><use xlink:href="#6" y="41.249"/><use xlink:href="#13" y="43.42"/><use xlink:href="#14" y="45.591"/><use xlink:href="#15" y="47.762"/><use xlink:href="#16" y="49.933"/><use xlink:href="#17" y="54.275"/></svg><svg x="2300"><use xlink:href="#a"/><use xlink:href="#b" x="-.004" y="58.592"/><use xlink:href="#1" y="2.171"/><use xlink:href="#2" y="4.342"/><use xlink:href="#3" y="6.513"/><use xlink:href="#4" y="10.855"/><use xlink:href="#5" y="15.197"/><use xlink:href="#6" y="19.539"/><use xlink:href="#7" y="21.71"/><use xlink:href="#8" y="23.881"/><use xlink:href="#9" y="26.052"/><use xlink:href="#10" y="28.223"/><use xlink:href="#11" y="32.565"/><use xlink:href="#12" y="36.907"/><use xlink:href="#6" y="41.249"/><use xlink:href="#13" y="43.42"/><use xlink:href="#14" y="45.591"/><use xlink:href="#15" y="47.762"/><use xlink:href="#16" y="49.933"/><use xlink:href="#17" y="54.275"/></svg><svg x="2400"><use xlink:href="#a"/><use xlink:href="#b" x="-.004" y="60.763"/><use xlink:href="#1" y="2.171"/><use xlink:href="#2" y="4.342"/><use xlink:href="#3" y="6.513"/><use xlink:href="#4" y="10.855"/><use xlink:href="#5" y="15.197"/><use xlink:href="#6" y="19.539"/><use xlink:href="#7" y="21.71"/><use xlink:href="#8" y="23.881"/><use xlink:href="#9" y="26.052"/><use xlink:href="#10" y="28.223"/><use xlink:href="#11" y="32.565"/><use xlink:href="#12" y="36.907"/><use xlink:href="#6" y="41.249"/><use xlink:href="#13" y="43.42"/><use xlink:href="#14" y="45.591"/><use xlink:href="#15" y="47.762"/><use xlink:href="#16" y="49.933"/><use xlink:href="#17" y="54.275"/><use xlink:href="#18" y="58.617"/></svg><svg x="2500"><use xlink:href="#a"/><use xlink:href="#b" x="-.004" y="62.934"/><use xlink:href="#1" y="2.171"/><use xlink:href="#2" y="4.342"/><use xlink:href="#3" y="6.513"/><use xlink:href="#4" y="10.855"/><use xlink:href="#5" y="15.197"/><use xlink:href="#6" y="19.539"/><use xlink:href="#7" y="21.71"/><use xlink:href="#8" y="23.881"/><use xlink:href="#9" y="26.052"/><use xlink:href="#10" y="28.223"/><use xlink:href="#11" y="32.565"/><use xlink:href="#12" y="36.907"/><use xlink:href="#6" y="41.249"/><use xlink:href="#13" y="43.42"/><use xlink:href="#14" y="45.591"/><use xlink:href="#15" y="47.762"/><use xlink:href="#16" y="49.933"/><use xlink:href="#17" y="54.275"/><use xlink:href="#18" y="58.617"/></svg><svg x="2600"><use xlink:href="#a"/><use xlink:href="#b" x="-.004" y="65.105"/><use xlink:href="#1" y="2.171"/><use xlink:href="#2" y="4.342"/><use xlink:href="#3" y="6.513"/><use xlink:href="#4" y="10.855"/><use xlink:href="#5" y="15.197"/><use xlink:href="#6" y="19.539"/><use xlink:href="#7" y="21.71"/><use xlink:href="#8" y="23.881"/><use xlink:href="#9" y="26.052"/><use xlink:href="#10" y="28.223"/><use xlink:href="#11" y="32.565"/><use xlink:href="#12" y="36.907"/><use xlink:href="#6" y="41.249"/><use xlink:href="#13" y="43.42"/><use xlink:href="#14" y="45.591"/><use xlink:href="#15" y="47.762"/><use xlink:href="#16" y="49.933"/><use xlink:href="#17" y="54.275"/><use xlink:href="#18" y="58.617"/><use xlink:href="#6" y="62.959"/></svg><svg x="2700"><use xlink:href="#a"/><use xlink:href="#b" x="-.004" y="67.276"/><use xlink:href="#1" y="2.171"/><use xlink:href="#2" y="4.342"/><use xlink:href="#3" y="6.513"/><use xlink:href="#4" y="10.855"/><use xlink:href="#5" y="15.197"/><use xlink:href="#6" y="19.539"/><use xlink:href="#7" y="21.71"/><use xlink:href="#8" y="23.881"/><use xlink:href="#9" y="26.052"/><use xlink:href="#10" y="28.223"/><use xlink:href="#11" y="32.565"/><use xlink:href="#12" y="36.907"/><use xlink:href="#6" y="41.249"/><use xlink:href="#13" y="43.42"/><use xlink:href="#14" y="45.591"/><use xlink:href="#15" y="47.762"/><use xlink:href="#16" y="49.933"/><use xlink:href="#17" y="54.275"/><use xlink:href="#18" y="58.617"/><use xlink:href="#6" y="62.959"/><use xlink:href="#19" y="65.13"/></svg><svg x="2800"><use xlink:href="#a"/><use xlink:href="#b" x="-.004" y="69.447"/><use xlink:href="#1" y="2.171"/><use xlink:href="#2" y="4.342"/><use xlink:href="#3" y="6.513"/><use xlink:href="#4" y="10.855"/><use xlink:href="#5" y="15.197"/><use xlink:href="#6" y="19.539"/><use xlink:href="#7" y="21.71"/><use xlink:href="#8" y="23.881"/><use xlink:href="#9" y="26.052"/><use xlink:href="#10" y="28.223"/><use xlink:href="#11" y="32.565"/><use xlink:href="#12" y="36.907"/><use xlink:href="#6" y="41.249"/><use xlink:href="#13" y="43.42"/><use xlink:href="#14" y="45.591"/><use xlink:href="#15" y="47.762"/><use xlink:href="#16" y="49.933"/><use xlink:href="#17" y="54.275"/><use xlink:href="#18" y="58.617"/><use xlink:href="#6" y="62.959"/><use xlink:href="#19" y="65.13"/></svg><svg x="2900"><use xlink:href="#a"/><use xlink:href="#b" x="-.004" y="73.789"/><use xlink:href="#1" y="2.171"/><use xlink:href="#2" y="4.342"/><use xlink:href="#3" y="6.513"/><use xlink:href="#4" y="10.855"/><use xlink:href="#5" y="15.197"/><use xlink:href="#6" y="19.539"/><use xlink:href="#7" y="21.71"/><use xlink:href="#8" y="23.881"/><use xlink:href="#9" y="26.052"/><use xlink:href="#10" y="28.223"/><use xlink:href="#11" y="32.565"/><use xlink:href="#12" y="36.907"/><use xlink:href="#6" y="41.249"/><use xlink:href="#13" y="43.42"/><use xlink:href="#14" y="45.591"/><use xlink:href="#15" y="47.762"/><use xlink:href="#16" y="49.933"/><use xlink:href="#17" y="54.275"/><use xlink:href="#18" y="58.617"/><use xlink:href="#6" y="62.959"/><use xlink:href="#19" y="65.13"/><use xlink:href="#20" y="69.472"/><use xlink:href="#21" y="71.643"/></svg><svg x="3000"><use xlink:href="#a"/><use xlink:href="#b" x="-.004" y="75.96"/><use xlink:href="#1" y="2.171"/><use xlink:href="#2" y="4.342"/><use xlink:href="#3" y="6.513"/><use xlink:href="#4" y="10.855"/><use xlink:href="#5" y="15.197"/><use xlink:href="#6" y="19.539"/><use xlink:href="#7" y="21.71"/><use xlink:href="#8" y="23.881"/><use xlink:href="#9" y="26.052"/><use xlink:href="#10" y="28.223"/><use xlink:href="#11" y="32.565"/><use xlink:href="#12" y="36.907"/><use xlink:href="#6" y="41.249"/><use xlink:href="#13" y="43.42"/><use xlink:href="#14" y="45.591"/><use xlink:href="#15" y="47.762"/><use xlink:href="#16" y="49.933"/><use xlink:href="#17" y="54.275"/><use xlink:href="#18" y="58.617"/><use xlink:href="#6" y="62.959"/><use xlink:href="#19" y="65.13"/><use xlink:href="#20" y="69.472"/><use xlink:href="#21" y="71.643"/></svg><svg x="3100"><use xlink:href="#a"/><use xlink:href="#b" x="-.004" y="80.302"/><use xlink:href="#1" y="2.171"/><use xlink:href="#2" y="4.342"/><use xlink:href="#3" y="6.513"/><use xlink:href="#4" y="10.855"/><use xlink:href="#5" y="15.197"/><use xlink:href="#6" y="19.539"/><use xlink:href="#7" y="21.71"/><use xlink:href="#8" y="23.881"/><use xlink:href="#9" y="26.052"/><use xlink:href="#10" y="28.223"/><use xlink:href="#11" y="32.565"/><use xlink:href="#12" y="36.907"/><use xlink:href="#6" y="41.249"/><use xlink:href="#13" y="43.42"/><use xlink:href="#14" y="45.591"/><use xlink:href="#15" y="47.762"/><use xlink:href="#16" y="49.933"/><use xlink:href="#17" y="54.275"/><use xlink:href="#18" y="58.617"/><use xlink:href="#6" y="62.959"/><use xlink:href="#19" y="65.13"/><use xlink:href="#20" y="69.472"/><use xlink:href="#21" y="71.643"/><use xlink:href="#22" y="75.985"/><use xlink:href="#23" y="78.156"/></svg><svg x="3200"><use xlink:href="#a"/><use xlink:href="#b" x="-.004" y="82.473"/><use xlink:href="#1" y="2.171"/><use xlink:href="#2" y="4.342"/><use xlink:href="#3" y="6.513"/><use xlink:href="#4" y="10.855"/><use xlink:href="#5" y="15.197"/><use xlink:href="#6" y="19.539"/><use xlink:href="#7" y="21.71"/><use xlink:href="#8" y="23.881"/><use xlink:href="#9" y="26.052"/><use xlink:href="#10" y="28.223"/><use xlink:href="#11" y="32.565"/><use xlink:href="#12" y="36.907"/><use xlink:href="#6" y="41.249"/><use xlink:href="#13" y="43.42"/><use xlink:href="#14" y="45.591"/><use xlink:href="#15" y="47.762"/><use xlink:href="#16" y="49.933"/><use xlink:href="#17" y="54.275"/><use xlink:href="#18" y="58.617"/><use xlink:href="#6" y="62.959"/><use xlink:href="#19" y="65.13"/><use xlink:href="#20" y="69.472"/><use xlink:href="#21" y="71.643"/><use xlink:href="#22" y="75.985"/><use xlink:href="#23" y="78.156"/></svg><svg x="3300"><use xlink:href="#a"/><use xlink:href="#b" x="-.004" y="86.815"/><use xlink:href="#1" y="2.171"/><use xlink:href="#2" y="4.342"/><use xlink:href="#3" y="6.513"/><use xlink:href="#4" y="10.855"/><use xlink:href="#5" y="15.197"/><use xlink:href="#6" y="19.539"/><use xlink:href="#7" y="21.71"/><use xlink:href="#8" y="23.881"/><use xlink:href="#9" y="26.052"/><use xlink:href="#10" y="28.223"/><use xlink:href="#11" y="32.565"/><use xlink:href="#12" y="36.907"/><use xlink:href="#6" y="41.249"/><use xlink:href="#13" y="43.42"/><use xlink:href="#14" y="45.591"/><use xlink:href="#15" y="47.762"/><use xlink:href="#16" y="49.933"/><use xlink:href="#17" y="54.275"/><use xlink:href="#18" y="58.617"/><use xlink:href="#6" y="62.959"/><use xlink:href="#19" y="65.13"/><use xlink:href="#20" y="69.472"/><use xlink:href="#21" y="71.643"/><use xlink:href="#22" y="75.985"/><use xlink:href="#23" y="78.156"/><use xlink:href="#24" y="82.498"/><use xlink:href="#25" y="84.669"/></svg><svg x="3400"><use xlink:href="#a"/><use xlink:href="#b" x="-.004" y="88.986"/><use xlink:href="#1" y="2.171"/><use xlink:href="#2" y="4.342"/><use xlink:href="#3" y="6.513"/><use xlink:href="#4" y="10.855"/><use xlink:href="#5" y="15.197"/><use xlink:href="#6" y="19.539"/><use xlink:href="#7" y="21.71"/><use xlink:href="#8" y="23.881"/><use xlink:href="#9" y="26.052"/><use xlink:href="#10" y="28.223"/><use xlink:href="#11" y="32.565"/><use xlink:href="#12" y="36.907"/><use xlink:href="#6" y="41.249"/><use xlink:href="#13" y="43.42"/><use xlink:href="#14" y="45.591"/><use xlink:href="#15" y="47.762"/><use xlink:href="#16" y="49.933"/><use xlink:href="#17" y="54.275"/><use xlink:href="#18" y="58.617"/><use xlink:href="#6" y="62.959"/><use xlink:href="#19" y="65.13"/><use xlink:href="#20" y="69.472"/><use xlink:href="#21" y="71.643"/><use xlink:href="#22" y="75.985"/><use xlink:href="#23" y="78.156"/><use xlink:href="#24" y="82.498"/><use xlink:href="#25" y="84.669"/></svg><svg x="3500"><use xlink:href="#a"/><use xlink:href="#b" x="-.004" y="91.157"/><use xlink:href="#1" y="2.171"/><use xlink:href="#2" y="4.342"/><use xlink:href="#3" y="6.513"/><use xlink:href="#4" y="10.855"/><use xlink:href="#5" y="15.197"/><use xlink:href="#6" y="19.539"/><use xlink:href="#7" y="21.71"/><use xlink:href="#8" y="23.881"/><use xlink:href="#9" y="26.052"/><use xlink:href="#10" y="28.223"/><use xlink:href="#11" y="32.565"/><use xlink:href="#12" y="36.907"/><use xlink:href="#6" y="41.249"/><use xlink:href="#13" y="43.42"/><use xlink:href="#14" y="45.591"/><use xlink:href="#15" y="47.762"/><use xlink:href="#16" y="49.933"/><use xlink:href="#17" y="54.275"/><use xlink:href="#18" y="58.617"/><use xlink:href="#6" y="62.959"/><use xlink:href="#19" y="65.13"/><use xlink:href="#20" y="69.472"/><use xlink:href="#21" y="71.643"/><use xlink:href="#22" y="75.985"/><use xlink:href="#23" y="78.156"/><use xlink:href="#24" y="82.498"/><use xlink:href="#25" y="84.669"/><use xlink:href="#26" y="89.011"/></svg><svg x="3600"><use xlink:href="#a"/><use xlink:href="#b" x="-.004" y="91.157"/><use xlink:href="#1"/><use xlink:href="#2" y="2.171"/><use xlink:href="#3" y="4.342"/><use xlink:href="#4" y="8.684"/><use xlink:href="#5" y="13.026"/><use xlink:href="#6" y="17.368"/><use xlink:href="#7" y="19.539"/><use xlink:href="#8" y="21.71"/><use xlink:href="#9" y="23.881"/><use xlink:href="#10" y="26.052"/><use xlink:href="#11" y="30.394"/><use xlink:href="#12" y="34.736"/><use xlink:href="#6" y="39.078"/><use xlink:href="#13" y="41.249"/><use xlink:href="#14" y="43.42"/><use xlink:href="#15" y="45.591"/><use xlink:href="#16" y="47.762"/><use xlink:href="#17" y="52.104"/><use xlink:href="#18" y="56.446"/><use xlink:href="#6" y="60.788"/><use xlink:href="#19" y="62.959"/><use xlink:href="#20" y="67.301"/><use xlink:href="#21" y="69.472"/><use xlink:href="#22" y="73.814"/><use xlink:href="#23" y="75.985"/><use xlink:href="#24" y="80.327"/><use xlink:href="#25" y="82.498"/><use xlink:href="#26" y="86.84"/></svg><svg x="3700"><use xlink:href="#a"/><use xlink:href="#b" x="13.996" y="91.157"/><use xlink:href="#1"/><use xlink:href="#2" y="2.171"/><use xlink:href="#3" y="4.342"/><use xlink:href="#4" y="8.684"/><use xlink:href="#5" y="13.026"/><use xlink:href="#6" y="17.368"/><use xlink:href="#7" y="19.539"/><use xlink:href="#8" y="21.71"/><use xlink:href="#9" y="23.881"/><use xlink:href="#10" y="26.052"/><use xlink:href="#11" y="30.394"/><use xlink:href="#12" y="34.736"/><use xlink:href="#6" y="39.078"/><use xlink:href="#13" y="41.249"/><use xlink:href="#14" y="43.42"/><use xlink:href="#15" y="45.591"/><use xlink:href="#16" y="47.762"/><use xlink:href="#17" y="52.104"/><use xlink:href="#18" y="56.446"/><use xlink:href="#6" y="60.788"/><use xlink:href="#19" y="62.959"/><use xlink:href="#20" y="67.301"/><use xlink:href="#21" y="69.472"/><use xlink:href="#22" y="73.814"/><use xlink:href="#23" y="75.985"/><use xlink:href="#24" y="80.327"/><use xlink:href="#25" y="82.498"/><use xlink:href="#26" y="86.84"/><text x="2.004" y="92.852" class="l">Measuring...</text></svg><svg x="3800"><use xlink:href="#a"/><use xlink:href="#b" x="-.004" y="91.157"/><use xlink:href="#2"/><use xlink:href="#3" y="2.171"/><use xlink:href="#4" y="6.513"/><use xlink:href="#5" y="10.855"/><use xlink:href="#6" y="15.197"/><use xlink:href="#7" y="17.368"/><use xlink:href="#8" y="19.539"/><use xlink:href="#9" y="21.71"/><use xlink:href="#10" y="23.881"/><use xlink:href="#11" y="28.223"/><use xlink:href="#12" y="32.565"/><use xlink:href="#6" y="36.907"/><use xlink:href="#13" y="39.078"/><use xlink:href="#14" y="41.249"/><use xlink:href="#15" y="43.42"/><use xlink:href="#16" y="45.591"/><use xlink:href="#17" y="49.933"/><use xlink:href="#18" y="54.275"/><use xlink:href="#6" y="58.617"/><use xlink:href="#19" y="60.788"/><use xlink:href="#20" y="65.13"/><use xlink:href="#21" y="67.301"/><use xlink:href="#22" y="71.643"/><use xlink:href="#23" y="73.814"/><use xlink:href="#24" y="78.156"/><use xlink:href="#25" y="80.327"/><use xlink:href="#26" y="84.669"/><use xlink:href="#27" y="89.011"/></svg><svg x="3900"><use xlink:href="#a"/><use xlink:href="#b" x="-.004" y="91.157"/><use xlink:href="#3"/><use xlink:href="#4" y="4.342"/><use xlink:href="#5" y="8.684"/><use xlink:href="#6" y="13.026"/><use xlink:href="#7" y="15.197"/><use xlink:href="#8" y="17.368"/><use xlink:href="#9" y="19.539"/><use xlink:href="#10" y="21.71"/><use xlink:href="#11" y="26.052"/><use xlink:href="#12" y="30.394"/><use xlink:href="#6" y="34.736"/><use xlink:href="#13" y="36.907"/><use xlink:href="#14" y="39.078"/><use xlink:href="#15" y="41.249"/><use xlink:href="#16" y="43.42"/><use xlink:href="#17" y="47.762"/><use xlink:href="#18" y="52.104"/><use xlink:href="#6" y="56.446"/><use xlink:href="#19" y="58.617"/><use xlink:href="#20" y="62.959"/><use xlink:href="#21" y="65.13"/><use xlink:href="#22" y="69.472"/><use xlink:href="#23" y="71.643"/><use xlink:href="#24" y="75.985"/><use xlink:href="#25" y="78.156"/><use xlink:href="#26" y="82.498"/><use xlink:href="#27" y="86.84"/></svg><svg x="4000"><use xlink:href="#a"/><use xlink:href="#b" x="-.004" y="91.157"/><use xlink:href="#4" y="2.171"/><use xlink:href="#5" y="6.513"/><use xlink:href="#6" y="10.855"/><use xlink:href="#7" y="13.026"/><use xlink:href="#8" y="15.197"/><use xlink:href="#9" y="17.368"/><use xlink:href="#10" y="19.539"/><use xlink:href="#11" y="23.881"/><use xlink:href="#12" y="28.223"/><use xlink:href="#6" y="32.565"/><use xlink:href="#13" y="34.736"/><use xlink:href="#14" y="36.907"/><use xlink:href="#15" y="39.078"/><use xlink:href="#16" y="41.249"/><use xlink:href="#17" y="45.591"/><use xlink:href="#18" y="49.933"/><use xlink:href="#6" y="54.275"/><use xlink:href="#19" y="56.446"/><use xlink:href="#20" y="60.788"/><use xlink:href="#21" y="62.959"/><use xlink:href="#22" y="67.301"/><use xlink:href="#23" y="69.472"/><use xlink:href="#24" y="73.814"/><use xlink:href="#25" y="75.985"/><use xlink:href="#26" y="80.327"/><use xlink:href="#27" y="84.669"/><use xlink:href="#28" y="89.011"/></svg><svg x="4100"><use xlink:href="#a"/><use xlink:href="#b" x="-.004" y="91.157"/><use xlink:href="#4"/><use xlink:href="#5" y="4.342"/><use xlink:href="#6" y="8.684"/><use xlink:href="#7" y="10.855"/><use xlink:href="#8" y="13.026"/><use xlink:href="#9" y="15.197"/><use xlink:href="#10" y="17.368"/><use xlink:href="#11" y="21.71"/><use xlink:href="#12" y="26.052"/><use xlink:href="#6" y="30.394"/><use xlink:href="#13" y="32.565"/><use xlink:href="#14" y="34.736"/><use xlink:href="#15" y="36.907"/><use xlink:href="#16" y="39.078"/><use xlink:href="#17" y="43.42"/><use xlink:href="#18" y="47.762"/><use xlink:href="#6" y="52.104"/><use xlink:href="#19" y="54.275"/><use xlink:href="#20" y="58.617"/><use xlink:href="#21" y="60.788"/><use xlink:href="#22" y="65.13"/><use xlink:href="#23" y="67.301"/><use xlink:href="#24" y="71.643"/><use xlink:href="#25" y="73.814"/><use xlink:href="#26" y="78.156"/><use xlink:href="#27" y="82.498"/><use xlink:href="#28" y="86.84"/><use xlink:href="#29" y="89.011"/></svg><svg x="4200"><use xlink:href="#a"/><use xlink:href="#b" x="-.004" y="91.157"/><use xlink:href="#5" y="2.171"/><use xlink:href="#6" y="6.513"/><use xlink:href="#7" y="8.684"/><use xlink:href="#8" y="10.855"/><use xlink:href="#9" y="13.026"/><use xlink:href="#10" y="15.197"/><use xlink:href="#11" y="19.539"/><use xlink:href="#12" y="23.881"/><use xlink:href="#6" y="28.223"/><use xlink:href="#13" y="30.394"/><use xlink:href="#14" y="32.565"/><use xlink:href="#15" y="34.736"/><use xlink:href="#16" y="36.907"/><use xlink:href="#17" y="41.249"/><use xlink:href="#18" y="45.591"/><use xlink:href="#6" y="49.933"/><use xlink:href="#19" y="52.104"/><use xlink:href="#20" y="56.446"/><use xlink:href="#21" y="58.617"/><use xlink:href="#22" y="62.959"/><use xlink:href="#23" y="65.13"/><use xlink:href="#24" y="69.472"/><use xlink:href="#25" y="71.643"/><use xlink:href="#26" y="75.985"/><use xlink:href="#27" y="80.327"/><use xlink:href="#28" y="84.669"/><use xlink:href="#29" y="86.84"/></svg><svg x="4300"><use xlink:href="#a"/><use xlink:href="#b" x="-.004" y="91.157"/><use xlink:href="#5"/><use xlink:href="#6" y="4.342"/><use xlink:href="#7" y="6.513"/><use xlink:href="#8" y="8.684"/><use xlink:href="#9" y="10.855"/><use xlink:href="#10" y="13.026"/><use xlink:href="#11" y="17.368"/><use xlink:href="#12" y="21.71"/><use xlink:href="#6" y="26.052"/><use xlink:href="#13" y="28.223"/><use xlink:href="#14" y="30.394"/><use xlink:href="#15" y="32.565"/><use xlink:href="#16" y="34.736"/><use xlink:href="#17" y="39.078"/><use xlink:href="#18" y="43.42"/><use xlink:href="#6" y="47.762"/><use xlink:href="#19" y="49.933"/><use xlink:href="#20" y="54.275"/><use xlink:href="#21" y="56.446"/><use xlink:href="#22" y="60.788"/><use xlink:href="#23" y="62.959"/><use xlink:href="#24" y="67.301"/><use xlink:href="#25" y="69.472"/><use xlink:href="#26" y="73.814"/><use xlink:href="#27" y="78.156"/><use xlink:href="#28" y="82.498"/><use xlink:href="#29" y="84.669"/><use xlink:href="#30" y="89.011"/></svg><svg x="4400"><use xlink:href="#a"/><use xlink:href="#b" x="-.004" y="91.157"/><use xlink:href="#6" y="2.171"/><use xlink:href="#7" y="4.342"/><use xlink:href="#8" y="6.513"/><use xlink:href="#9" y="8.684"/><use xlink:href="#10" y="10.855"/><use xlink:href="#11" y="15.197"/><use xlink:href="#12" y="19.539"/><use xlink:href="#6" y="23.881"/><use xlink:href="#13" y="26.052"/><use xlink:href="#14" y="28.223"/><use xlink:href="#15" y="30.394"/><use xlink:href="#16" y="32.565"/><use xlink:href="#17" y="36.907"/><use xlink:href="#18" y="41.249"/><use xlink:href="#6" y="45.591"/><use xlink:href="#19" y="47.762"/><use xlink:href="#20" y="52.104"/><use xlink:href="#21" y="54.275"/><use xlink:href="#22" y="58.617"/><use xlink:href="#23" y="60.788"/><use xlink:href="#24" y="65.13"/><use xlink:href="#25" y="67.301"/><use xlink:href="#26" y="71.643"/><use xlink:href="#27" y="75.985"/><use xlink:href="#28" y="80.327"/><use xlink:href="#29" y="82.498"/><use xlink:href="#30" y="86.84"/><use xlink:href="#31" y="89.011"/></svg><svg x="4500"><use xlink:href="#a"/><use xlink:href="#b" x="-.004" y="91.157"/><use xlink:href="#6"/><use xlink:href="#7" y="2.171"/><use xlink:href="#8" y="4.342"/><use xlink:href="#9" y="6.513"/><use xlink:href="#10" y="8.684"/><use xlink:href="#11" y="13.026"/><use xlink:href="#12" y="17.368"/><use xlink:href="#6" y="21.71"/><use xlink:href="#13" y="23.881"/><use xlink:href="#14" y="26.052"/><use xlink:href="#15" y="28.223"/><use xlink:href="#16" y="30.394"/><use xlink:href="#17" y="34.736"/><use xlink:href="#18" y="39.078"/><use xlink:href="#6" y="43.42"/><use xlink:href="#19" y="45.591"/><use xlink:href="#20" y="49.933"/><use xlink:href="#21" y="52.104"/><use xlink:href="#22" y="56.446"/><use xlink:href="#23" y="58.617"/><use xlink:href="#24" y="62.959"/><use xlink:href="#25" y="65.13"/><use xlink:href="#26" y="69.472"/><use xlink:href="#27" y="73.814"/><use xlink:href="#28" y="78.156"/><use xlink:href="#29" y="80.327"/><use xlink:href="#30" y="84.669"/><use xlink:href="#31" y="86.84"/></svg></svg></g></g></svg></svg>